<svg width="300" height="300" viewBox="0 0 300 300" fill="none" xmlns="http://www.w3.org/2000/svg">
<rect width="300" height="300" rx="30" fill="#101214"/>
<path d="M123.064 106.4H143.8V196H123.064V106.4ZM82.36 196H61.624V106.4H82.36V196ZM124.6 159.264H80.824V141.728H124.6V159.264ZM207.879 197.536C200.967 197.536 194.524 196.427 188.551 194.208C182.663 191.904 177.543 188.661 173.191 184.48C168.839 180.299 165.426 175.392 162.951 169.76C160.562 164.128 159.367 157.941 159.367 151.2C159.367 144.459 160.562 138.272 162.951 132.64C165.426 127.008 168.839 122.101 173.191 117.92C177.628 113.739 182.791 110.539 188.679 108.32C194.567 106.016 201.01 104.864 208.007 104.864C215.772 104.864 222.77 106.229 228.999 108.96C235.314 111.605 240.604 115.531 244.871 120.736L231.559 133.024C228.487 129.525 225.074 126.923 221.319 125.216C217.564 123.424 213.468 122.528 209.031 122.528C204.85 122.528 201.01 123.211 197.511 124.576C194.012 125.941 190.983 127.904 188.423 130.464C185.863 133.024 183.858 136.053 182.407 139.552C181.042 143.051 180.359 146.933 180.359 151.2C180.359 155.467 181.042 159.349 182.407 162.848C183.858 166.347 185.863 169.376 188.423 171.936C190.983 174.496 194.012 176.459 197.511 177.824C201.01 179.189 204.85 179.872 209.031 179.872C213.468 179.872 217.564 179.019 221.319 177.312C225.074 175.52 228.487 172.832 231.559 169.248L244.871 181.536C240.604 186.741 235.314 190.709 228.999 193.44C222.77 196.171 215.73 197.536 207.879 197.536Z" fill="white"/>
</svg>
