<svg width="450" height="169" viewBox="0 0 450 169" fill="none" xmlns="http://www.w3.org/2000/svg">
<g clip-path="url(#clip0_612_69)">
<path d="M33.9581 50.8277C33.0818 50.8277 32.8627 50.3895 33.3009 49.7323L37.9016 43.817C38.3398 43.1597 39.4352 42.7216 40.3116 42.7216H118.525C119.401 42.7216 119.62 43.3788 119.182 44.0361L115.458 49.7323C115.019 50.3895 113.924 51.0468 113.267 51.0468L33.9581 50.8277Z" fill="#101214"/>
<path d="M0.876339 70.9835C0 70.9835 -0.219085 70.5453 0.219085 69.888L4.81986 63.9727C5.25803 63.3155 6.35346 62.8773 7.2298 62.8773H107.132C108.009 62.8773 108.447 63.5346 108.228 64.1918L106.475 69.4499C106.256 70.3262 105.38 70.7644 104.503 70.7644L0.876339 70.9835Z" fill="#101214"/>
<path d="M53.8948 91.1393C53.0185 91.1393 52.7994 90.482 53.2376 89.8248L56.3048 84.3476C56.7429 83.6904 57.6193 83.0331 58.4956 83.0331H102.313C103.189 83.0331 103.627 83.6904 103.627 84.5667L103.189 89.8248C103.189 90.7011 102.313 91.3584 101.655 91.3584L53.8948 91.1393Z" fill="#101214"/>
<path d="M281.305 46.8841C267.502 50.3895 258.082 53.0185 244.499 56.5239C241.212 57.4002 240.993 57.6193 238.145 54.333C234.859 50.6086 232.449 48.1986 227.848 46.0078C214.046 39.2162 200.682 41.1879 188.194 49.2941C173.296 58.9338 165.628 73.1743 165.847 90.9202C166.066 108.447 178.116 122.907 195.424 125.316C210.321 127.288 222.809 122.03 232.668 110.857C234.64 108.447 236.392 105.818 238.583 102.751C230.696 102.751 220.837 102.751 196.3 102.751C191.699 102.751 190.604 99.9026 192.137 96.1782C194.985 89.3866 200.243 77.9942 203.311 72.298C203.968 70.9835 205.501 68.7926 208.788 68.7926C219.961 68.7926 261.149 68.7926 288.535 68.7926C288.096 74.7079 288.096 80.6232 287.22 86.5385C284.81 102.313 278.895 116.772 269.255 129.479C253.481 150.292 232.887 163.218 206.816 166.723C185.346 169.572 165.409 165.409 147.882 152.264C131.67 139.995 122.468 123.783 120.058 103.627C117.21 79.7468 124.221 58.2765 138.681 39.4353C154.236 19.0604 174.83 6.13438 200.024 1.5336C220.618 -2.19084 240.336 0.219093 258.082 12.2688C269.693 19.9367 278.018 30.4528 283.496 43.1597C284.81 45.1315 283.934 46.2269 281.305 46.8841Z" fill="#101214"/>
<path d="M353.822 168.038C333.885 167.6 315.701 161.904 300.365 148.759C287.439 137.585 279.333 123.345 276.704 106.475C272.76 81.7186 279.552 59.8101 294.45 40.3116C310.443 19.2795 329.722 8.32523 355.794 3.72445C378.14 -0.219077 399.172 1.97177 418.233 14.8978C435.54 26.7283 446.276 42.7215 449.124 63.7537C452.848 93.3301 444.304 117.429 423.929 138.023C409.469 152.702 391.723 161.904 371.349 166.066C365.433 167.162 359.518 167.381 353.822 168.038ZM405.964 79.5278C405.745 76.6797 405.745 74.4888 405.307 72.298C401.363 50.6086 381.427 38.3398 360.613 43.1597C340.239 47.7605 327.094 60.6865 322.274 81.2804C318.33 98.369 326.655 115.677 342.429 122.687C354.479 127.945 366.529 127.288 378.14 121.373C395.448 112.39 404.869 98.369 405.964 79.5278Z" fill="#101214"/>
</g>
<defs>
<clipPath id="clip0_612_69">
<rect width="450" height="168.038" fill="white"/>
</clipPath>
</defs>
</svg>
