<svg width="25" height="10" viewBox="0 0 25 10" fill="none" xmlns="http://www.w3.org/2000/svg">
<g clip-path="url(#clip0_612_69)">
<path d="M1.88658 2.82382C1.83789 2.82382 1.82572 2.79947 1.85006 2.76296L2.10566 2.43433C2.13 2.39782 2.19086 2.37347 2.23955 2.37347H6.58473C6.63341 2.37347 6.64558 2.40999 6.62124 2.4465L6.41433 2.76296C6.38998 2.79947 6.32913 2.83599 6.29261 2.83599L1.88658 2.82382Z" fill="#101214"/>
<path d="M0.0486855 3.94357C0 3.94357 -0.0121714 3.91922 0.0121714 3.88271L0.26777 3.55408C0.292113 3.51757 0.35297 3.49323 0.401655 3.49323H5.9518C6.00049 3.49323 6.02483 3.52974 6.01266 3.56625L5.91529 3.85837C5.90312 3.90705 5.85443 3.93139 5.80574 3.93139L0.0486855 3.94357Z" fill="#101214"/>
<path d="M2.99415 5.06332C2.94547 5.06332 2.93329 5.0268 2.95764 4.99029L3.12804 4.686C3.15238 4.64949 3.20106 4.61298 3.24975 4.61298H5.68402C5.73271 4.61298 5.75705 4.64949 5.75705 4.69818L5.73271 4.99029C5.73271 5.03897 5.68402 5.07549 5.64751 5.07549L2.99415 5.06332Z" fill="#101214"/>
<path d="M15.6281 2.6047C14.8613 2.79944 14.3379 2.9455 13.5833 3.14024C13.4007 3.18893 13.3885 3.2011 13.2303 3.01853C13.0477 2.81161 12.9138 2.67773 12.6582 2.55602C11.8914 2.1787 11.149 2.28825 10.4552 2.73859C9.62756 3.27413 9.20157 4.06527 9.21374 5.05115C9.22591 6.02486 9.89533 6.82817 10.8569 6.96205C11.6845 7.0716 12.3783 6.77948 12.926 6.15874C13.0355 6.02486 13.1329 5.8788 13.2546 5.7084C12.8165 5.7084 12.2688 5.7084 10.9056 5.7084C10.65 5.7084 10.5891 5.55017 10.6743 5.34326C10.8325 4.96595 11.1246 4.33304 11.295 4.01658C11.3316 3.94355 11.4168 3.82184 11.5993 3.82184C12.2201 3.82184 14.5083 3.82184 16.0297 3.82184C16.0054 4.15047 16.0054 4.47909 15.9567 4.80772C15.8228 5.68406 15.4942 6.48737 14.9586 7.19331C14.0823 8.34959 12.9382 9.0677 11.4898 9.26244C10.297 9.42067 9.1894 9.18941 8.21569 8.45913C7.315 7.77753 6.80381 6.87685 6.66992 5.75709C6.51169 4.43041 6.90118 3.23761 7.70449 2.19087C8.56865 1.05894 9.71276 0.340826 11.1125 0.0852273C12.2566 -0.121686 13.352 0.012199 14.3379 0.681624C14.983 1.10762 15.4455 1.69185 15.7498 2.39779C15.8228 2.50733 15.7741 2.56819 15.6281 2.6047Z" fill="#101214"/>
<path d="M19.6568 9.3355C18.5492 9.31116 17.539 8.9947 16.687 8.26442C15.9689 7.64368 15.5185 6.85254 15.3725 5.91534C15.1534 4.53998 15.5307 3.32284 16.3583 2.23959C17.2468 1.07114 18.3179 0.462567 19.7663 0.206968C21.0078 -0.0121167 22.1763 0.109597 23.2352 0.827708C24.1967 1.48496 24.7931 2.37347 24.9513 3.54192C25.1582 5.18506 24.6836 6.52391 23.5516 7.66802C22.7483 8.4835 21.7624 8.9947 20.6305 9.22596C20.3019 9.28681 19.9732 9.29898 19.6568 9.3355ZM22.5536 4.41826C22.5414 4.26004 22.5414 4.13832 22.5171 4.01661C22.298 2.81164 21.1904 2.13005 20.0341 2.39782C18.9022 2.65341 18.1719 3.37152 17.9041 4.51563C17.685 5.465 18.1475 6.42654 19.0239 6.81602C19.6933 7.10814 20.3627 7.07162 21.0078 6.743C21.9693 6.24397 22.4927 5.465 22.5536 4.41826Z" fill="#101214"/>
</g>
<defs>
<clipPath id="clip0_612_69">
<rect width="25" height="9.33544" fill="white"/>
</clipPath>
</defs>
</svg>
