<svg width="67" height="25" viewBox="0 0 67 25" fill="none" xmlns="http://www.w3.org/2000/svg">
<g clip-path="url(#clip0_612_48)">
<path d="M5.05216 7.56195C4.92178 7.56195 4.88919 7.49677 4.95438 7.39898L5.63886 6.51893C5.70405 6.42115 5.86702 6.35596 5.9974 6.35596H17.6336C17.764 6.35596 17.7966 6.45374 17.7314 6.55152L17.1773 7.39898C17.1121 7.49677 16.9492 7.59455 16.8514 7.59455L5.05216 7.56195Z" fill="white"/>
<path d="M0.130378 10.5607C0 10.5607 -0.0325945 10.4955 0.0325945 10.3977L0.71708 9.51765C0.782269 9.41986 0.945241 9.35468 1.07562 9.35468H15.9387C16.0691 9.35468 16.1343 9.45246 16.1017 9.55024L15.8409 10.3325C15.8083 10.4629 15.678 10.5281 15.5476 10.5281L0.130378 10.5607Z" fill="white"/>
<path d="M8.01826 13.5593C7.88788 13.5593 7.85528 13.4615 7.92047 13.3638L8.3768 12.5489C8.44199 12.4511 8.57236 12.3533 8.70274 12.3533H15.2216C15.352 12.3533 15.4172 12.4511 15.4172 12.5815L15.352 13.3638C15.352 13.4941 15.2216 13.5919 15.1239 13.5919L8.01826 13.5593Z" fill="white"/>
<path d="M41.8514 6.97525C39.7979 7.49676 38.3964 7.88789 36.3755 8.40941C35.8866 8.53978 35.854 8.57238 35.4303 8.08346C34.9413 7.52935 34.5828 7.17081 33.8983 6.84487C31.8449 5.83444 29.8566 6.12779 27.9987 7.33379C25.7823 8.76795 24.6415 10.8866 24.6741 13.5267C24.7067 16.1343 26.4994 18.2855 29.0743 18.6441C31.2908 18.9374 33.1486 18.1552 34.6154 16.4928C34.9087 16.1343 35.1695 15.7432 35.4954 15.2869C34.322 15.2869 32.8553 15.2869 29.2047 15.2869C28.5202 15.2869 28.3572 14.8631 28.5854 14.309C29.0091 13.2986 29.7914 11.6037 30.2477 10.7562C30.3455 10.5606 30.5737 10.2347 31.0626 10.2347C32.7249 10.2347 38.8527 10.2347 42.927 10.2347C42.8618 11.1148 42.8618 11.9948 42.7314 12.8749C42.3729 15.2217 41.4928 17.3729 40.0587 19.2634C37.7119 22.3599 34.648 24.2829 30.7692 24.8045C27.575 25.2282 24.6089 24.6089 22.0013 22.6532C19.5893 20.8279 18.2203 18.4159 17.8618 15.4172C17.4381 11.8644 18.4811 8.67016 20.6323 5.86703C22.9466 2.83574 26.0104 0.912666 29.7588 0.228181C32.8227 -0.325926 35.7562 0.0326136 38.3964 1.82531C40.1239 2.96612 41.3625 4.53066 42.1773 6.42114C42.3729 6.71449 42.2425 6.87746 41.8514 6.97525Z" fill="white"/>
<path d="M52.6402 25C49.6741 24.9348 46.9687 24.0874 44.6871 22.1317C42.764 20.4694 41.558 18.3507 41.1669 15.841C40.5802 12.1578 41.5906 8.89832 43.8071 5.99741C46.1865 2.86834 49.0548 1.23861 52.9335 0.554125C56.2582 -0.0325764 59.3872 0.293369 62.223 2.21645C64.7979 3.97655 66.3951 6.35595 66.8188 9.48503C67.3729 13.8853 66.1017 17.4707 63.0704 20.5346C60.9192 22.7184 58.279 24.0874 55.2477 24.7067C54.3677 24.8696 53.4876 24.9022 52.6402 25ZM60.3977 11.8318C60.3651 11.4081 60.3651 11.0822 60.2999 10.7562C59.7132 7.52935 56.7471 5.70406 53.6506 6.42114C50.6193 7.10562 48.6636 9.0287 47.9466 12.0926C47.3599 14.635 48.5985 17.2099 50.9453 18.253C52.738 19.0352 54.5307 18.9374 56.2582 18.0574C58.8331 16.721 60.2347 14.635 60.3977 11.8318Z" fill="white"/>
</g>
<defs>
<clipPath id="clip0_612_48">
<rect width="66.9492" height="25" fill="white"/>
</clipPath>
</defs>
</svg>
