<svg width="450" height="450" viewBox="0 0 450 450" fill="none" xmlns="http://www.w3.org/2000/svg">
<g clip-path="url(#clip0_572_48)">
<path d="M450 0H0V450H450V0Z" fill="#101214"/>
<path d="M302.286 351.564C311.35 366.364 323.143 377.243 344 377.243C361.522 377.243 372.714 368.486 372.714 356.386C372.714 341.886 361.214 336.75 341.929 328.314L331.357 323.779C300.843 310.779 280.572 294.493 280.572 260.064C280.572 228.35 304.736 204.207 342.5 204.207C369.386 204.207 388.714 213.564 402.643 238.064L369.714 259.207C362.464 246.207 354.643 241.086 342.5 241.086C330.114 241.086 322.264 248.943 322.264 259.207C322.264 271.893 330.122 277.029 348.264 284.886L358.836 289.414C394.764 304.821 415.05 320.529 415.05 355.843C415.05 393.914 385.143 414.771 344.979 414.771C305.707 414.771 280.336 396.057 267.922 371.529L302.286 351.564ZM152.907 355.229C159.55 367.014 165.593 376.979 180.122 376.979C194.014 376.979 202.779 371.543 202.779 350.407V206.621H245.064V350.979C245.064 394.764 219.393 414.693 181.922 414.693C148.064 414.693 128.457 397.171 118.486 376.068L152.907 355.229Z" fill="white"/>
</g>
<defs>
<clipPath id="clip0_572_48">
<rect width="450" height="450" fill="white"/>
</clipPath>
</defs>
</svg>
