<svg width="25" height="25" viewBox="0 0 25 25" fill="none" xmlns="http://www.w3.org/2000/svg">
<g clip-path="url(#clip0_575_79)">
<path d="M25 0H0V25H25V0Z" fill="white"/>
<path d="M16.7937 19.5314C17.2972 20.3536 17.9524 20.9579 19.1111 20.9579C20.0845 20.9579 20.7064 20.4714 20.7064 19.7992C20.7064 18.9937 20.0675 18.7083 18.996 18.2397L18.4087 17.9877C16.7135 17.2655 15.5873 16.3607 15.5873 14.448C15.5873 12.6861 16.9298 11.3448 19.0278 11.3448C20.5214 11.3448 21.5952 11.8647 22.3691 13.2258L20.5397 14.4004C20.1369 13.6782 19.7024 13.3937 19.0278 13.3937C18.3397 13.3937 17.9036 13.8302 17.9036 14.4004C17.9036 15.1052 18.3401 15.3905 19.348 15.827L19.9353 16.0786C21.9314 16.9345 23.0583 17.8071 23.0583 19.7691C23.0583 21.8841 21.3968 23.0429 19.1655 23.0429C16.9837 23.0429 15.5742 22.0032 14.8845 20.6405L16.7937 19.5314ZM8.49485 19.7349C8.8639 20.3897 9.19961 20.9433 10.0068 20.9433C10.7786 20.9433 11.2655 20.6413 11.2655 19.4671V11.479H13.6147V19.4988C13.6147 21.9314 12.1885 23.0385 10.1068 23.0385C8.2258 23.0385 7.13652 22.0651 6.58255 20.8927L8.49485 19.7349Z" fill="#101214"/>
</g>
<defs>
<clipPath id="clip0_575_79">
<rect width="25" height="25" fill="white"/>
</clipPath>
</defs>
</svg>
