<svg width="512" height="448" viewBox="0 0 512 448" fill="none" xmlns="http://www.w3.org/2000/svg">
<path fill-rule="evenodd" clip-rule="evenodd" d="M0 0H512V448H0V0ZM0.8 0.8H63.2V63.2H0.8V0.8ZM64.8 0.8H127.2V63.2H64.8V0.8ZM191.2 0.8H128.8V63.2H191.2V0.8ZM192.8 0.8H255.2V63.2H192.8V0.8ZM319.2 0.8H256.8V63.2H319.2V0.8ZM320.8 0.8H383.2V63.2H320.8V0.8ZM447.2 0.8H384.8V63.2H447.2V0.8ZM448.8 0.8H511.2V63.2H448.8V0.8ZM63.2 64.8H0.8V127.2H63.2V64.8ZM64.8 64.8H127.2V127.2H64.8V64.8ZM191.2 64.8H128.8V127.2H191.2V64.8ZM192.8 64.8H255.2V127.2H192.8V64.8ZM319.2 64.8H256.8V127.2H319.2V64.8ZM320.8 64.8H383.2V127.2H320.8V64.8ZM447.2 64.8H384.8V127.2H447.2V64.8ZM448.8 64.8H511.2V127.2H448.8V64.8ZM63.2 128.8H0.8V191.2H63.2V128.8ZM64.8 128.8H127.2V191.2H64.8V128.8ZM191.2 128.8H128.8V191.2H191.2V128.8ZM192.8 128.8H255.2V191.2H192.8V128.8ZM319.2 128.8H256.8V191.2H319.2V128.8ZM320.8 128.8H383.2V191.2H320.8V128.8ZM447.2 128.8H384.8V191.2H447.2V128.8ZM448.8 128.8H511.2V191.2H448.8V128.8ZM63.2 192.8H0.8V255.2H63.2V192.8ZM64.8 192.8H127.2V255.2H64.8V192.8ZM191.2 192.8H128.8V255.2H191.2V192.8ZM192.8 192.8H255.2V255.2H192.8V192.8ZM319.2 192.8H256.8V255.2H319.2V192.8ZM320.8 192.8H383.2V255.2H320.8V192.8ZM447.2 192.8H384.8V255.2H447.2V192.8ZM448.8 192.8H511.2V255.2H448.8V192.8ZM63.2 256.8H0.8V319.2H63.2V256.8ZM64.8 256.8H127.2V319.2H64.8V256.8ZM191.2 256.8H128.8V319.2H191.2V256.8ZM192.8 256.8H255.2V319.2H192.8V256.8ZM319.2 256.8H256.8V319.2H319.2V256.8ZM320.8 256.8H383.2V319.2H320.8V256.8ZM447.2 256.8H384.8V319.2H447.2V256.8ZM448.8 256.8H511.2V319.2H448.8V256.8ZM63.2 320.8H0.8V383.2H63.2V320.8ZM64.8 320.8H127.2V383.2H64.8V320.8ZM191.2 320.8H128.8V383.2H191.2V320.8ZM192.8 320.8H255.2V383.2H192.8V320.8ZM319.2 320.8H256.8V383.2H319.2V320.8ZM320.8 320.8H383.2V383.2H320.8V320.8ZM447.2 320.8H384.8V383.2H447.2V320.8ZM448.8 320.8H511.2V383.2H448.8V320.8ZM63.2 384.8H0.8V447.2H63.2V384.8ZM64.8 384.8H127.2V447.2H64.8V384.8ZM191.2 384.8H128.8V447.2H191.2V384.8ZM192.8 384.8H255.2V447.2H192.8V384.8ZM319.2 384.8H256.8V447.2H319.2V384.8ZM320.8 384.8H383.2V447.2H320.8V384.8ZM447.2 384.8H384.8V447.2H447.2V384.8ZM448.8 384.8H511.2V447.2H448.8V384.8Z" fill="#101214"/>
</svg>
